<?xml version="1.0" encoding="iso-8859-1"?>
<!-- Generator: Adobe Illustrator 19.0.0, SVG Export Plug-In . SVG Version: 6.00 Build 0)  -->
<svg version="1.1" id="Layer_1" xmlns="http://www.w3.org/2000/svg" xmlns:xlink="http://www.w3.org/1999/xlink" x="0px" y="0px"
	 viewBox="0 0 512.001 512.001" style="enable-background:new 0 0 512.001 512.001;" xml:space="preserve">
<g>
	<path style="fill:#657694;" d="M259.949,234.902L259.949,234.902L259.949,234.902z M230.431,204.729l-90.211,90.21l-40.62,40.62
		L10.667,424.49l30.171,30.169l219.759-219.765c-0.217,0.004-0.434,0.009-0.653,0.009c-16.233,0-29.514-13.28-29.514-29.517V204.729
		z"/>
	<path style="fill:#ABB8B9;" d="M230.431,205.385c0,16.237,13.281,29.517,29.518,29.517c0.214,0,0.432-0.004,0.649-0.009
		c15.937-0.348,28.865-13.489,28.865-29.508V175.87h-54.816h-4.216v28.859L230.431,205.385L230.431,205.385z"/>
	<path style="fill:#FCD051;" d="M234.646,175.87h54.816H442.07c32.597,0,59.263-26.671,59.263-59.267
		c0-32.59-26.667-59.261-59.263-59.261H234.646c-25.085,0-46.66,15.795-55.271,37.93c-2.576,6.628-3.993,13.824-3.993,21.331
		c0,7.509,1.417,14.701,3.993,21.333C187.987,160.076,209.562,175.87,234.646,175.87z"/>
	<path style="fill:#ABB8B9;" d="M179.375,137.936c-2.576-6.628-3.993-13.824-3.993-21.333c0-7.507,1.417-14.703,3.993-21.331
		h-42.667v21.331v21.333H179.375z"/>
</g>
<g>
	<path style="fill:#000003;" d="M442.069,46.675H234.646c-27.032,0-50.515,15.427-62.149,37.93h-35.789
		c-5.891,0-10.667,4.777-10.667,10.667v12.22c-15.333,4.423-29.7,17.915-37.104,35.79c-10.935,26.398-4.492,55.131,17.237,76.859
		c31.482,31.481,26.619,61.338,24.616,69.14L3.125,416.947C1.124,418.948,0,421.66,0,424.49c0,2.829,1.124,5.543,3.125,7.543
		l30.171,30.169c2.083,2.082,4.813,3.124,7.543,3.124s5.46-1.042,7.543-3.124L265.394,245.19
		c19.588-2.668,34.735-19.495,34.735-39.805v-18.847H442.07c38.56,0,69.931-31.372,69.931-69.935
		C512,78.045,480.63,46.675,442.069,46.675z M147.376,105.94h18.152c-0.033,0.215-0.053,0.435-0.084,0.652
		c-0.118,0.818-0.225,1.637-0.315,2.461c-0.037,0.356-0.068,0.715-0.102,1.073c-0.069,0.753-0.127,1.507-0.173,2.265
		c-0.02,0.33-0.042,0.658-0.057,0.99c-0.05,1.071-0.082,2.145-0.082,3.223c0,1.078,0.032,2.153,0.082,3.224
		c0.015,0.331,0.036,0.659,0.057,0.989c0.046,0.757,0.103,1.514,0.173,2.268c0.033,0.357,0.065,0.714,0.102,1.069
		c0.09,0.829,0.197,1.656,0.317,2.479c0.03,0.211,0.05,0.426,0.082,0.637h-18.152V105.94z M121.259,205.055
		c-22.22-22.22-16.222-44.892-12.612-53.607c3.791-9.151,10.382-16.802,17.394-20.915v7.403c0,5.891,4.777,10.667,10.667,10.667
		h35.789c9.435,18.252,26.664,31.84,47.266,36.324v15.383l-66.655,66.655C151.258,249.734,143.633,227.428,121.259,205.055z
		 M40.838,439.573l-15.085-15.084l199.269-199.267c3.58,6.281,8.803,11.503,15.083,15.086L40.838,439.573z M278.795,205.385
		c0,10.393-8.454,18.849-18.846,18.849h-0.004c-10.392,0-18.846-8.456-18.846-18.849v-18.847h37.697L278.795,205.385
		L278.795,205.385z M442.069,165.203H289.462h-54.816c-20.568,0-38.179-12.851-45.261-30.94c-0.025-0.067-0.043-0.135-0.067-0.202
		c-0.538-1.381-1.008-2.781-1.413-4.198c-0.007-0.026-0.016-0.052-0.022-0.078c-0.18-0.635-0.345-1.273-0.498-1.913
		c-0.039-0.164-0.077-0.33-0.114-0.494c-0.122-0.534-0.236-1.07-0.339-1.608c-0.053-0.278-0.101-0.559-0.15-0.84
		c-0.079-0.45-0.155-0.901-0.222-1.354c-0.054-0.378-0.099-0.76-0.145-1.139c-0.045-0.378-0.094-0.753-0.13-1.132
		c-0.047-0.482-0.079-0.969-0.112-1.455c-0.02-0.292-0.047-0.584-0.061-0.876c-0.038-0.786-0.061-1.578-0.061-2.374
		s0.021-1.586,0.061-2.372c0.014-0.293,0.041-0.586,0.061-0.878c0.032-0.485,0.065-0.971,0.112-1.452
		c0.036-0.38,0.085-0.757,0.131-1.135c0.045-0.379,0.09-0.758,0.144-1.134c0.067-0.456,0.144-0.908,0.223-1.359
		c0.048-0.278,0.096-0.556,0.148-0.833c0.106-0.54,0.219-1.077,0.341-1.613c0.037-0.162,0.074-0.325,0.112-0.486
		c0.155-0.643,0.319-1.283,0.5-1.92c0.007-0.025,0.014-0.047,0.02-0.07c0.405-1.417,0.877-2.818,1.415-4.201
		c0.025-0.066,0.043-0.134,0.067-0.201c7.082-18.088,24.693-30.938,45.262-30.938H442.07c26.796,0,48.596,21.799,48.596,48.594
		C490.665,143.401,468.865,165.203,442.069,165.203z"/>
	<path style="fill:#000003;" d="M313.972,89.339h-79.326c-5.892,0-10.667,4.777-10.667,10.667c0,5.891,4.776,10.667,10.667,10.667
		h79.326c5.891,0,10.667-4.777,10.667-10.667C324.639,94.116,319.864,89.339,313.972,89.339z"/>
	<path style="fill:#000003;" d="M344.87,89.343h-0.256c-5.892,0-10.668,4.777-10.668,10.667c0,5.891,4.776,10.667,10.668,10.667
		h0.256c5.892,0,10.667-4.777,10.667-10.667C355.538,94.12,350.762,89.343,344.87,89.343z"/>
</g>
<g>
</g>
<g>
</g>
<g>
</g>
<g>
</g>
<g>
</g>
<g>
</g>
<g>
</g>
<g>
</g>
<g>
</g>
<g>
</g>
<g>
</g>
<g>
</g>
<g>
</g>
<g>
</g>
<g>
</g>
</svg>
