<?xml version="1.0" encoding="iso-8859-1"?>
<!-- Generator: Adobe Illustrator 19.0.0, SVG Export Plug-In . SVG Version: 6.00 Build 0)  -->
<svg version="1.1" id="Capa_1" xmlns="http://www.w3.org/2000/svg" xmlns:xlink="http://www.w3.org/1999/xlink" x="0px" y="0px"
	 viewBox="0 0 360 360" style="enable-background:new 0 0 360 360;" xml:space="preserve">
<g id="XMLID_958_">
	<path id="XMLID_959_" d="M344.94,126.231H295.06V77.834L212.037,0H15.06v360h280v-51.042h49.881V126.231z M314.94,278.958h-210
		V156.231h210V278.958z"/>
	<polygon id="XMLID_962_" points="136.989,203.372 153.093,234.172 159.693,234.172 175.797,203.372 175.797,244.733 
		187.941,244.733 187.941,182.252 175.005,182.252 156.35,217.804 137.87,182.252 124.846,182.252 124.846,244.733 136.989,244.733 
			"/>
	<path id="XMLID_963_" d="M213.108,223.788h14.784c2.874,0,5.514-0.586,7.92-1.76c2.405-1.173,4.458-2.729,6.16-4.664
		c1.701-1.936,3.021-4.149,3.96-6.644c0.938-2.492,1.408-5.06,1.408-7.699c0-2.523-0.499-5.03-1.496-7.524
		c-0.999-2.493-2.376-4.722-4.136-6.688c-1.76-1.965-3.858-3.549-6.292-4.752c-2.435-1.202-5.09-1.805-7.964-1.805h-26.488v62.481
		h12.144V223.788z M213.108,192.901h13.552c1.056,0,2.097,0.22,3.124,0.66c1.026,0.439,1.921,1.1,2.684,1.98
		c0.762,0.88,1.377,1.951,1.848,3.212c0.469,1.263,0.704,2.685,0.704,4.269c0,3.11-0.748,5.574-2.244,7.392
		c-1.496,1.819-3.359,2.729-5.588,2.729h-14.08V192.901z"/>
	<path id="XMLID_966_" d="M279.987,232.456c-1.878,1.408-4.606,2.112-8.184,2.112c-3.168,0-5.808-0.528-7.92-1.584
		c-2.112-1.056-3.931-2.552-5.456-4.488l-6.688,8.359c2.288,2.758,5.148,4.854,8.58,6.292s7.377,2.156,11.836,2.156
		c3.52,0,6.688-0.426,9.504-1.275c2.816-0.852,5.206-2.055,7.172-3.608c1.965-1.555,3.49-3.448,4.576-5.676
		c1.085-2.231,1.628-4.722,1.628-7.481c0-4.105-1.13-7.581-3.388-10.428c-2.259-2.845-5.207-4.59-8.844-5.236
		c1.642-0.293,3.153-0.88,4.532-1.76c1.378-0.88,2.566-1.965,3.564-3.256c0.997-1.29,1.76-2.729,2.288-4.313
		c0.528-1.584,0.792-3.256,0.792-5.016c0-2.346-0.484-4.473-1.452-6.38c-0.968-1.906-2.347-3.534-4.136-4.884
		c-1.791-1.35-3.916-2.405-6.38-3.168c-2.464-0.762-5.192-1.145-8.184-1.145c-2.288,0-4.518,0.221-6.688,0.66
		c-2.171,0.44-4.18,1.056-6.028,1.848c-1.848,0.792-3.506,1.731-4.972,2.816c-1.467,1.086-2.64,2.303-3.52,3.652l7.392,8.272
		c1.349-2.229,3.094-3.96,5.236-5.191c2.141-1.233,4.561-1.849,7.26-1.849c2.64,0,4.781,0.587,6.424,1.76
		c1.642,1.175,2.465,2.964,2.465,5.368c0,2.523-0.999,4.592-2.992,6.204c-1.995,1.614-4.811,2.42-8.448,2.42h-2.728v8.8h2.464
		c4.4,0,7.685,0.822,9.856,2.465c2.17,1.643,3.256,3.99,3.256,7.04C282.803,228.879,281.864,231.048,279.987,232.456z"/>
</g>
<g>
</g>
<g>
</g>
<g>
</g>
<g>
</g>
<g>
</g>
<g>
</g>
<g>
</g>
<g>
</g>
<g>
</g>
<g>
</g>
<g>
</g>
<g>
</g>
<g>
</g>
<g>
</g>
<g>
</g>
</svg>
