<?xml version="1.0" encoding="iso-8859-1"?>
<!-- Generator: Adobe Illustrator 19.0.0, SVG Export Plug-In . SVG Version: 6.00 Build 0)  -->
<svg version="1.1" id="Layer_1" xmlns="http://www.w3.org/2000/svg" xmlns:xlink="http://www.w3.org/1999/xlink" x="0px" y="0px"
	 viewBox="0 0 512.001 512.001" style="enable-background:new 0 0 512.001 512.001;" xml:space="preserve">
<path style="fill:#B3404A;" d="M302.542,446.433c-5.866,0-11.749-1.358-17.224-4.095l-145.592-72.802H42.471
	C19.052,369.536,0,350.484,0,327.065V184.934c0-23.419,19.052-42.471,42.471-42.471h97.255l145.592-72.799
	c12.01-6.007,25.999-5.375,37.42,1.683c11.422,7.06,18.241,19.29,18.241,32.718v181.851c0,8.261-6.698,14.957-14.957,14.957
	c-8.259,0-14.957-6.696-14.957-14.957V104.065c0-4.302-2.836-6.518-4.055-7.27c-1.219-0.754-4.474-2.297-8.314-0.374
	l-148.752,74.378c-2.077,1.038-4.366,1.579-6.689,1.579H42.471c-6.923,0-12.558,5.633-12.558,12.558v142.131
	c0,6.923,5.634,12.558,12.558,12.558h100.786c2.323,0,4.613,0.54,6.689,1.579l148.752,74.38c3.845,1.925,7.097,0.38,8.314-0.374
	c1.219-0.752,4.055-2.969,4.055-7.27v-32.283c0-8.261,6.698-14.957,14.957-14.957c8.259,0,14.957,6.696,14.957,14.957v32.283
	c0,13.428-6.82,25.658-18.241,32.718C316.522,444.496,309.544,446.433,302.542,446.433z"/>
<path style="fill:#F4B2B0;" d="M139.383,157.42H42.471c-15.196,0-27.514,12.318-27.514,27.514V256v71.065
	c0,15.196,12.318,27.514,27.514,27.514h96.912L139.383,157.42L139.383,157.42z"/>
<g>
	<path style="fill:#B3404A;" d="M139.383,369.536H42.471C19.052,369.536,0,350.484,0,327.065V184.934
		c0-23.419,19.052-42.471,42.471-42.471h96.912c8.261,0,14.957,6.696,14.957,14.957v197.16
		C154.34,362.84,147.644,369.536,139.383,369.536z M42.471,172.377c-6.923,0-12.558,5.633-12.558,12.558v142.131
		c0,6.923,5.634,12.558,12.558,12.558h81.955V172.377H42.471z"/>
	<path style="fill:#B3404A;" d="M260.23,330.785c-8.261,0-14.957-6.696-14.957-14.957V98.932c0-8.261,6.696-14.957,14.957-14.957
		c8.259,0,14.957,6.696,14.957,14.957v216.896C275.187,324.089,268.49,330.785,260.23,330.785z"/>
	<path style="fill:#B3404A;" d="M412.289,313.335c-3.829,0-7.655-1.46-10.576-4.381c-5.841-5.841-5.841-15.311,0-21.152
		l84.754-84.755c5.842-5.841,15.31-5.842,21.153,0c5.841,5.841,5.841,15.311,0,21.152l-84.754,84.755
		C419.944,311.875,416.117,313.335,412.289,313.335z"/>
	<path style="fill:#B3404A;" d="M497.043,313.335c-3.829,0-7.655-1.46-10.576-4.381l-84.754-84.755
		c-5.841-5.841-5.841-15.311,0-21.152c5.844-5.841,15.311-5.839,21.153,0l84.754,84.755c5.841,5.841,5.841,15.311,0,21.152
		C504.698,311.875,500.869,313.335,497.043,313.335z"/>
</g>
<g>
</g>
<g>
</g>
<g>
</g>
<g>
</g>
<g>
</g>
<g>
</g>
<g>
</g>
<g>
</g>
<g>
</g>
<g>
</g>
<g>
</g>
<g>
</g>
<g>
</g>
<g>
</g>
<g>
</g>
</svg>
