<?xml version="1.0" encoding="iso-8859-1"?>
<!-- Generator: Adobe Illustrator 19.0.0, SVG Export Plug-In . SVG Version: 6.00 Build 0)  -->
<svg version="1.1" id="Layer_1" xmlns="http://www.w3.org/2000/svg" xmlns:xlink="http://www.w3.org/1999/xlink" x="0px" y="0px"
	 viewBox="0 0 512 512" style="enable-background:new 0 0 512 512;" xml:space="preserve">
<path style="fill:#2D527C;" d="M300.129,444.913c-5.819,0-11.656-1.347-17.087-4.063L138.61,368.63H42.132
	C18.9,368.63,0,349.728,0,326.497V185.5c0-23.231,18.9-42.132,42.132-42.132h96.477l144.432-72.218
	c11.913-5.956,25.792-5.333,37.122,1.669c11.331,7.003,18.096,19.136,18.096,32.457v180.401c0,8.195-6.643,14.837-14.837,14.837
	c-8.195,0-14.837-6.643-14.837-14.837V105.275c0-4.267-2.813-6.466-4.021-7.212c-1.209-0.748-4.433-2.279-8.25-0.371
	l-147.566,73.785c-2.061,1.03-4.331,1.567-6.635,1.567H42.132c-6.868,0-12.458,5.588-12.458,12.458v140.997
	c0,6.868,5.589,12.457,12.458,12.457h99.981c2.304,0,4.576,0.536,6.635,1.567l147.564,73.787c3.818,1.91,7.04,0.377,8.251-0.371
	c1.209-0.748,4.021-2.947,4.021-7.212v-32.024c0-8.195,6.643-14.837,14.837-14.837c8.195,0,14.837,6.643,14.837,14.837v32.024
	c0,13.321-6.764,25.454-18.096,32.457C313.997,442.99,307.076,444.913,300.129,444.913z"/>
<path style="fill:#CEE8FA;" d="M138.272,158.205H42.132c-15.075,0-27.295,12.22-27.295,27.295v70.499v70.499
	c0,15.075,12.22,27.295,27.295,27.295h96.139L138.272,158.205L138.272,158.205z"/>
<g>
	<path style="fill:#2D527C;" d="M138.272,368.63H42.132C18.9,368.63,0,349.728,0,326.497V185.5c0-23.231,18.9-42.132,42.132-42.132
		h96.139c8.195,0,14.837,6.643,14.837,14.837v195.587C153.109,361.987,146.466,368.63,138.272,368.63z M42.132,173.042
		c-6.868,0-12.458,5.588-12.458,12.458v140.997c0,6.868,5.589,12.458,12.458,12.458h81.302V173.042H42.132z"/>
	<path style="fill:#2D527C;" d="M258.155,330.187c-8.195,0-14.837-6.643-14.837-14.837V100.182c0-8.195,6.643-14.837,14.837-14.837
		c8.195,0,14.837,6.643,14.837,14.837v215.167C272.993,323.543,266.35,330.187,258.155,330.187z"/>
	<path style="fill:#2D527C;" d="M393.303,360.479c-8.195,0-14.837-6.643-14.837-14.837v-94.463c0-8.195,6.643-14.837,14.837-14.837
		s14.837,6.643,14.837,14.837v94.463C408.141,353.837,401.498,360.479,393.303,360.479z"/>
	<path style="fill:#2D527C;" d="M445.233,360.479c-8.195,0-14.837-6.643-14.837-14.837V206.664c0-8.195,6.643-14.837,14.837-14.837
		s14.837,6.643,14.837,14.837v138.978C460.07,353.837,453.428,360.479,445.233,360.479z"/>
	<path style="fill:#2D527C;" d="M497.163,360.479c-8.195,0-14.837-6.643-14.837-14.837V162.146c0-8.195,6.643-14.837,14.837-14.837
		S512,153.951,512,162.146v183.496C512,353.837,505.357,360.479,497.163,360.479z"/>
</g>
<g>
</g>
<g>
</g>
<g>
</g>
<g>
</g>
<g>
</g>
<g>
</g>
<g>
</g>
<g>
</g>
<g>
</g>
<g>
</g>
<g>
</g>
<g>
</g>
<g>
</g>
<g>
</g>
<g>
</g>
</svg>
